# xmcd CD database file
#
# Track frame offsets:
#	150
#	16119
#	40380
#	57338
#	77832
#	126240
#
# Disc length: 2234 seconds
#
# Revision: 0
# Processed by: cddbd v1.5.2PL0 Copyright (c) Steve Scherf et al.
# Submitted via: CDex 1.70beta2
#
DISCID=4708b806
DTITLE=Various Artist - A Quartet Is a Quartet Is a Quartet
DYEAR=1964
DGENRE=Jazz
TTITLE0=The Modern Jazz Quartet - Reunion Blues
TTITLE1=The Modern Jazz Quartet - Winter Tale
TTITLE2=The Modern Jazz Quartet - Concorde
TTITLE3=The Modern Jazz Quartet - Yesterdays
TTITLE4=Quarteto di Milano - Fünf Sätze
TTITLE5=The Hungarian Gypsy Quartet - Concert Medley
EXTD=YEAR: 1964
EXTT0=
EXTT1=
EXTT2=
EXTT3=
EXTT4=
EXTT5=
PLAYORDER=
